<svg width="87" height="35" viewBox="0 0 87 35" fill="none" xmlns="http://www.w3.org/2000/svg">
<path d="M0 6C0 2.68629 2.68629 0 6 0H81C84.3137 0 87 2.68629 87 6V29C87 32.3137 84.3137 35 81 35H6C2.68629 35 0 32.3137 0 29V6Z" fill="#C98E59"/>
<path d="M25.9086 23V12.8182H27.753V17.1286H32.4711V12.8182H34.3205V23H32.4711V18.6747H27.753V23H25.9086ZM38.4444 23.1541C37.9605 23.1541 37.5247 23.0679 37.1369 22.8956C36.7524 22.7199 36.4475 22.4614 36.2221 22.12C36.0001 21.7786 35.889 21.3577 35.889 20.8572C35.889 20.4264 35.9686 20.0701 36.1277 19.7884C36.2868 19.5066 36.5038 19.2812 36.7789 19.1122C37.054 18.9432 37.3639 18.8156 37.7086 18.7294C38.0566 18.6399 38.4163 18.5753 38.7875 18.5355C39.2349 18.4891 39.5978 18.4477 39.8762 18.4112C40.1547 18.3714 40.3568 18.3118 40.4828 18.2322C40.612 18.1494 40.6767 18.0218 40.6767 17.8494V17.8196C40.6767 17.4451 40.5656 17.1551 40.3436 16.9496C40.1215 16.7441 39.8017 16.6413 39.3841 16.6413C38.9432 16.6413 38.5936 16.7375 38.335 16.9297C38.0798 17.1219 37.9075 17.349 37.818 17.6108L36.1376 17.3722C36.2702 16.9081 36.4889 16.5204 36.7939 16.2088C37.0988 15.8939 37.4717 15.6586 37.9125 15.5028C38.3533 15.3438 38.8405 15.2642 39.3741 15.2642C39.742 15.2642 40.1083 15.3073 40.4728 15.3935C40.8374 15.4796 41.1705 15.6222 41.4721 15.821C41.7737 16.0166 42.0157 16.2834 42.198 16.6214C42.3836 16.9595 42.4764 17.3821 42.4764 17.8892V23H40.7463V21.951H40.6866C40.5772 22.1631 40.4231 22.362 40.2243 22.5476C40.0287 22.7299 39.7818 22.8774 39.4835 22.9901C39.1885 23.0994 38.8422 23.1541 38.4444 23.1541ZM38.9118 21.8317C39.273 21.8317 39.5862 21.7604 39.8514 21.6179C40.1165 21.4721 40.3204 21.2798 40.4629 21.0412C40.6087 20.8026 40.6816 20.5424 40.6816 20.2607V19.3608C40.6253 19.4072 40.5292 19.4503 40.3933 19.4901C40.2607 19.5298 40.1116 19.5646 39.9458 19.5945C39.7801 19.6243 39.6161 19.6508 39.4537 19.674C39.2913 19.6972 39.1504 19.7171 39.0311 19.7337C38.7626 19.7701 38.5223 19.8298 38.3102 19.9126C38.0981 19.9955 37.9307 20.1115 37.8081 20.2607C37.6854 20.4065 37.6241 20.5954 37.6241 20.8274C37.6241 21.1589 37.7451 21.4091 37.987 21.5781C38.229 21.7472 38.5372 21.8317 38.9118 21.8317ZM44.3656 23V12.8182H46.1653V16.6264H46.2399C46.3327 16.4408 46.4636 16.2436 46.6326 16.0348C46.8017 15.8227 47.0304 15.642 47.3187 15.4929C47.6071 15.3404 47.975 15.2642 48.4224 15.2642C49.0124 15.2642 49.5443 15.415 50.0183 15.7166C50.4956 16.0149 50.8734 16.4574 51.1518 17.044C51.4335 17.6274 51.5744 18.3433 51.5744 19.1918C51.5744 20.0303 51.4368 20.7429 51.1618 21.3295C50.8867 21.9162 50.5121 22.3636 50.0382 22.6719C49.5642 22.9801 49.0273 23.1342 48.4274 23.1342C47.9899 23.1342 47.627 23.0613 47.3386 22.9155C47.0502 22.7696 46.8182 22.594 46.6426 22.3885C46.4702 22.1797 46.336 21.9825 46.2399 21.7969H46.1355V23H44.3656ZM46.1305 19.1818C46.1305 19.6757 46.2001 20.1082 46.3393 20.4794C46.4818 20.8506 46.6857 21.1406 46.9508 21.3494C47.2193 21.5549 47.5441 21.6577 47.9252 21.6577C48.323 21.6577 48.6561 21.5516 48.9245 21.3395C49.193 21.1241 49.3952 20.8307 49.5311 20.4595C49.6703 20.085 49.7399 19.6591 49.7399 19.1818C49.7399 18.7079 49.6719 18.2869 49.536 17.919C49.4002 17.5511 49.198 17.2628 48.9295 17.054C48.661 16.8452 48.3263 16.7408 47.9252 16.7408C47.5408 16.7408 47.2143 16.8419 46.9458 17.044C46.6774 17.2462 46.4735 17.5296 46.3343 17.8942C46.1984 18.2588 46.1305 18.688 46.1305 19.1818ZM53.1044 23V15.3636H54.9041V23H53.1044ZM54.0092 14.2798C53.7242 14.2798 53.4789 14.1854 53.2734 13.9964C53.0679 13.8042 52.9652 13.5739 52.9652 13.3054C52.9652 13.0336 53.0679 12.8033 53.2734 12.6143C53.4789 12.4221 53.7242 12.326 54.0092 12.326C54.2976 12.326 54.5429 12.4221 54.745 12.6143C54.9505 12.8033 55.0533 13.0336 55.0533 13.3054C55.0533 13.5739 54.9505 13.8042 54.745 13.9964C54.5429 14.1854 54.2976 14.2798 54.0092 14.2798ZM62.7903 17.3821L61.1497 17.5611C61.1033 17.3954 61.0221 17.2396 60.9061 17.0938C60.7934 16.9479 60.6409 16.8303 60.4487 16.7408C60.2565 16.6513 60.0211 16.6065 59.7427 16.6065C59.3682 16.6065 59.0533 16.6877 58.7981 16.8501C58.5462 17.0125 58.4219 17.223 58.4252 17.4815C58.4219 17.7036 58.5031 17.8842 58.6689 18.0234C58.8379 18.1626 59.1163 18.277 59.5041 18.3665L60.8066 18.6449C61.5292 18.8007 62.0661 19.0476 62.4174 19.3857C62.7721 19.7237 62.9511 20.1662 62.9544 20.7131C62.9511 21.1937 62.8102 21.6179 62.5318 21.9858C62.2567 22.3504 61.8739 22.6354 61.3833 22.8409C60.8928 23.0464 60.3294 23.1491 59.693 23.1491C58.7583 23.1491 58.006 22.9536 57.4359 22.5625C56.8658 22.1681 56.5261 21.6196 56.4167 20.9169L58.1717 20.7479C58.2512 21.0926 58.4203 21.3527 58.6788 21.5284C58.9373 21.7041 59.2737 21.7919 59.688 21.7919C60.1156 21.7919 60.4586 21.7041 60.7172 21.5284C60.979 21.3527 61.1099 21.1357 61.1099 20.8771C61.1099 20.6584 61.0254 20.4777 60.8564 20.3352C60.6906 20.1927 60.4321 20.0833 60.0808 20.0071L58.7782 19.7337C58.0458 19.5812 57.5038 19.3243 57.1525 18.9631C56.8012 18.5985 56.6272 18.1378 56.6305 17.581C56.6272 17.1103 56.7548 16.7027 57.0133 16.358C57.2752 16.0099 57.6381 15.7415 58.1021 15.5526C58.5694 15.3603 59.108 15.2642 59.7179 15.2642C60.6127 15.2642 61.3171 15.4548 61.8308 15.8359C62.3478 16.2171 62.6677 16.7325 62.7903 17.3821Z" fill="white"/>
</svg>
