<svg width="21" height="20" viewBox="0 0 21 20" fill="none" xmlns="http://www.w3.org/2000/svg">
<g id="facebook">
<path id="Path" d="M17.7313 0H3.05045C1.5548 0 0.342285 1.2066 0.342285 2.69506V17.305C0.342285 18.7934 1.55475 20 3.05045 20H10.291L10.3033 12.8531H8.43752C8.19504 12.8531 7.99824 12.658 7.99731 12.4167L7.98836 10.1129C7.98742 9.87032 8.18482 9.67315 8.42862 9.67315H10.291V7.44714C10.291 4.86388 11.8764 3.45727 14.192 3.45727H16.0922C16.3353 3.45727 16.5324 3.65341 16.5324 3.8954V5.83793C16.5324 6.07982 16.3355 6.27592 16.0924 6.27606L14.9263 6.2766C13.667 6.2766 13.4232 6.87212 13.4232 7.74608V9.6732H16.1903C16.454 9.6732 16.6586 9.90232 16.6275 10.1629L16.3531 12.4667C16.3268 12.6871 16.139 12.8532 15.9159 12.8532H13.4355L13.4232 20.0001H17.7314C19.227 20.0001 20.4395 18.7935 20.4395 17.3051V2.69506C20.4395 1.2066 19.227 0 17.7313 0Z" fill="#475993"/>
</g>
</svg>
