<svg width="21" height="20" viewBox="0 0 21 20" fill="none" xmlns="http://www.w3.org/2000/svg">
<g id="instagram">
<path id="Shape" fill-rule="evenodd" clip-rule="evenodd" d="M6.32936 0H14.4524C17.7537 0 20.4395 2.67279 20.4395 5.95811V14.0419C20.4395 17.3272 17.7537 20 14.4524 20H6.32936C3.02807 20 0.342285 17.3272 0.342285 14.0419V5.95811C0.342285 2.67279 3.02807 0 6.32936 0ZM14.4525 17.988C16.6424 17.988 18.4178 16.2212 18.4178 14.0419V5.95807C18.4178 3.77868 16.6424 2.01196 14.4525 2.01196H6.3294C4.13944 2.01196 2.3641 3.77868 2.3641 5.95807V14.0419C2.3641 16.2212 4.13944 17.988 6.3294 17.988H14.4525Z" fill="url(#paint0_linear_71_560)"/>
<path id="Shape_2" fill-rule="evenodd" clip-rule="evenodd" d="M5.19336 10.0001C5.19336 7.14787 7.52511 4.82739 10.3912 4.82739C13.2573 4.82739 15.5891 7.14783 15.5891 10.0001C15.5891 12.8523 13.2573 15.1728 10.3912 15.1728C7.52511 15.1728 5.19336 12.8523 5.19336 10.0001ZM7.2151 10.0001C7.2151 11.7457 8.63707 13.1608 10.3912 13.1608C12.1453 13.1608 13.5673 11.7457 13.5673 10.0001C13.5673 8.25444 12.1453 6.83936 10.3912 6.83936C8.6371 6.83936 7.2151 8.25444 7.2151 10.0001Z" fill="url(#paint1_linear_71_560)"/>
<path id="Oval" d="M15.5988 6.10568C16.2867 6.10568 16.8443 5.55075 16.8443 4.8662C16.8443 4.18165 16.2867 3.62671 15.5988 3.62671C14.9109 3.62671 14.3533 4.18165 14.3533 4.8662C14.3533 5.55075 14.9109 6.10568 15.5988 6.10568Z" fill="url(#paint2_linear_71_560)"/>
</g>
<defs>
<linearGradient id="paint0_linear_71_560" x1="20.3322" y1="19.9418" x2="20.3322" y2="0.155343" gradientUnits="userSpaceOnUse">
<stop stop-color="#E09B3D"/>
<stop offset="0.3" stop-color="#C74C4D"/>
<stop offset="0.6" stop-color="#C21975"/>
<stop offset="1" stop-color="#7024C4"/>
</linearGradient>
<linearGradient id="paint1_linear_71_560" x1="20.3326" y1="19.9419" x2="20.3326" y2="0.155448" gradientUnits="userSpaceOnUse">
<stop stop-color="#E09B3D"/>
<stop offset="0.3" stop-color="#C74C4D"/>
<stop offset="0.6" stop-color="#C21975"/>
<stop offset="1" stop-color="#7024C4"/>
</linearGradient>
<linearGradient id="paint2_linear_71_560" x1="25.5401" y1="19.9419" x2="25.5401" y2="0.155418" gradientUnits="userSpaceOnUse">
<stop stop-color="#E09B3D"/>
<stop offset="0.3" stop-color="#C74C4D"/>
<stop offset="0.6" stop-color="#C21975"/>
<stop offset="1" stop-color="#7024C4"/>
</linearGradient>
</defs>
</svg>
