<svg width="84" height="17" viewBox="0 0 84 17" fill="none" xmlns="http://www.w3.org/2000/svg">
<path d="M15.0759 5.86204L10.8608 5.24944L8.97647 1.42943C8.92501 1.32484 8.84034 1.24017 8.73575 1.1887C8.47345 1.05921 8.1547 1.16712 8.02354 1.42943L6.13927 5.24944L1.92413 5.86204C1.80792 5.87864 1.70167 5.93343 1.62032 6.01644C1.52198 6.11752 1.46778 6.25351 1.46965 6.39452C1.47152 6.53554 1.52929 6.67005 1.63028 6.76849L4.67999 9.74183L3.95948 13.9404C3.94258 14.038 3.95339 14.1385 3.99068 14.2303C4.02796 14.3222 4.09024 14.4017 4.17043 14.46C4.25063 14.5182 4.34555 14.5528 4.44441 14.5599C4.54328 14.5669 4.64214 14.5461 4.72979 14.4998L8.50001 12.5176L12.2702 14.4998C12.3732 14.5546 12.4927 14.5729 12.6072 14.553C12.8961 14.5032 13.0903 14.2292 13.0405 13.9404L12.32 9.74183L15.3697 6.76849C15.4527 6.68714 15.5075 6.58089 15.5241 6.46468C15.569 6.17415 15.3664 5.90521 15.0759 5.86204Z" fill="#FFD601"/>
<path d="M49.0758 5.86204L44.8607 5.24944L42.9764 1.42943C42.9249 1.32484 42.8403 1.24017 42.7357 1.1887C42.4734 1.05921 42.1546 1.16712 42.0235 1.42943L40.1392 5.24944L35.9241 5.86204C35.8079 5.87864 35.7016 5.93343 35.6203 6.01644C35.5219 6.11752 35.4677 6.25351 35.4696 6.39452C35.4715 6.53554 35.5292 6.67005 35.6302 6.76849L38.6799 9.74183L37.9594 13.9404C37.9425 14.038 37.9533 14.1385 37.9906 14.2303C38.0279 14.3222 38.0902 14.4017 38.1704 14.46C38.2506 14.5182 38.3455 14.5528 38.4444 14.5599C38.5432 14.5669 38.6421 14.5461 38.7297 14.4998L42.4999 12.5176L46.2702 14.4998C46.3731 14.5546 46.4926 14.5729 46.6072 14.553C46.896 14.5032 47.0903 14.2292 47.0405 13.9404L46.32 9.74183L49.3697 6.76849C49.4527 6.68714 49.5075 6.58089 49.5241 6.46468C49.5689 6.17415 49.3664 5.90521 49.0758 5.86204Z" fill="#FFD601"/>
<path d="M32.076 5.86204L27.8609 5.24944L25.9766 1.42943C25.9251 1.32484 25.8405 1.24017 25.7359 1.1887C25.4736 1.05921 25.1548 1.16712 25.0237 1.42943L23.1394 5.24944L18.9243 5.86204C18.808 5.87864 18.7018 5.93343 18.6204 6.01644C18.5221 6.11752 18.4679 6.25351 18.4698 6.39452C18.4716 6.53554 18.5294 6.67005 18.6304 6.76849L21.6801 9.74183L20.9596 13.9404C20.9427 14.038 20.9535 14.1385 20.9908 14.2303C21.0281 14.3222 21.0904 14.4017 21.1706 14.46C21.2508 14.5182 21.3457 14.5528 21.4445 14.5599C21.5434 14.5669 21.6423 14.5461 21.7299 14.4998L25.5001 12.5176L29.2703 14.4998C29.3733 14.5546 29.4928 14.5729 29.6074 14.553C29.8962 14.5032 30.0905 14.2292 30.0407 13.9404L29.3201 9.74183L32.3699 6.76849C32.4529 6.68714 32.5076 6.58089 32.5243 6.46468C32.5691 6.17415 32.3665 5.90521 32.076 5.86204Z" fill="#FFD601"/>
<path d="M66.0759 5.86204L61.8608 5.24944L59.9765 1.42943C59.9251 1.32484 59.8404 1.24017 59.7358 1.1887C59.4735 1.05921 59.1548 1.16712 59.0236 1.42943L57.1393 5.24944L52.9242 5.86204C52.808 5.87864 52.7017 5.93343 52.6204 6.01644C52.522 6.11752 52.4678 6.25351 52.4697 6.39452C52.4716 6.53554 52.5294 6.67005 52.6303 6.76849L55.68 9.74183L54.9595 13.9404C54.9426 14.038 54.9535 14.1385 54.9907 14.2303C55.028 14.3222 55.0903 14.4017 55.1705 14.46C55.2507 14.5182 55.3456 14.5528 55.4445 14.5599C55.5433 14.5669 55.6422 14.5461 55.7299 14.4998L59.5001 12.5176L63.2703 14.4998C63.3732 14.5546 63.4927 14.5729 63.6073 14.553C63.8962 14.5032 64.0904 14.2292 64.0406 13.9404L63.3201 9.74183L66.3698 6.76849C66.4528 6.68714 66.5076 6.58089 66.5242 6.46468C66.569 6.17415 66.3665 5.90521 66.0759 5.86204Z" fill="#FFD601"/>
<path d="M77.3497 5.47063L77.466 5.70643L77.7262 5.74425L81.9398 6.35661C81.9399 6.35663 81.94 6.35665 81.9402 6.35667C81.9503 6.35827 81.9575 6.36308 81.9625 6.36974C81.965 6.37313 81.9664 6.37636 81.9671 6.37896C81.9677 6.38117 81.968 6.38402 81.9674 6.38844L81.9673 6.38843L81.9665 6.39397C81.9658 6.39922 81.9632 6.40533 81.9574 6.41117C81.9573 6.41124 81.9572 6.41131 81.9571 6.41138L78.9084 9.38382L78.7201 9.56732L78.7646 9.8264L79.4851 14.0249L79.4852 14.0253C79.4879 14.0408 79.4776 14.0571 79.4597 14.0602L79.4589 14.0604C79.4558 14.0609 79.4524 14.0609 79.449 14.0604C79.4483 14.0603 79.4476 14.0602 79.447 14.06C79.4448 14.0595 79.4433 14.0589 79.4425 14.0585L79.4403 14.0573L75.6701 12.075L75.4374 11.9527L75.2047 12.075L71.4345 14.0573L71.4337 14.0577C71.4287 14.0603 71.423 14.0615 71.4174 14.0611C71.4117 14.0607 71.4062 14.0587 71.4016 14.0554C71.397 14.0521 71.3935 14.0475 71.3913 14.0422L70.9281 14.2303L71.3913 14.0422C71.3892 14.037 71.3886 14.0312 71.3895 14.0256L71.3897 14.0249L72.1102 9.8264L72.1546 9.56732L71.9664 9.38382L68.9167 6.41048L68.9167 6.41045C68.9106 6.40451 68.9071 6.3964 68.907 6.3879C68.9069 6.37968 68.9099 6.37175 68.9155 6.36573C68.9212 6.36018 68.9271 6.35775 68.9322 6.35702L68.9334 6.35684L73.1486 5.74425L73.4087 5.70643L73.5251 5.47063L75.4084 1.65253C75.4174 1.63521 75.4379 1.63017 75.4518 1.63705L75.4524 1.63733C75.4579 1.64007 75.4625 1.64462 75.4652 1.65018L75.4654 1.65061L77.3497 5.47063Z" stroke="#FFD601"/>
<mask id="mask0_29_180" style="mask-type:alpha" maskUnits="userSpaceOnUse" x="66" y="0" width="18" height="17">
<path d="M77.3497 5.47063L77.466 5.70643L77.7262 5.74425L81.9398 6.35661C81.9399 6.35663 81.94 6.35665 81.9402 6.35667C81.9503 6.35827 81.9575 6.36308 81.9625 6.36974C81.965 6.37313 81.9664 6.37636 81.9671 6.37896C81.9677 6.38117 81.968 6.38402 81.9674 6.38844L81.9673 6.38843L81.9665 6.39397C81.9658 6.39922 81.9632 6.40533 81.9574 6.41117C81.9573 6.41124 81.9572 6.41131 81.9571 6.41138L78.9084 9.38382L78.7201 9.56732L78.7646 9.8264L79.4851 14.0249L79.4852 14.0253C79.4879 14.0408 79.4776 14.0571 79.4597 14.0602L79.4589 14.0604C79.4558 14.0609 79.4524 14.0609 79.449 14.0604C79.4483 14.0603 79.4476 14.0602 79.447 14.06C79.4448 14.0595 79.4433 14.0589 79.4425 14.0585L79.4403 14.0573L75.6701 12.075L75.4374 11.9527L75.2047 12.075L71.4345 14.0573L71.4337 14.0577C71.4287 14.0603 71.423 14.0615 71.4174 14.0611C71.4117 14.0607 71.4062 14.0587 71.4016 14.0554C71.397 14.0521 71.3935 14.0475 71.3913 14.0422L70.9281 14.2303L71.3913 14.0422C71.3892 14.037 71.3886 14.0312 71.3895 14.0256L71.3897 14.0249L72.1102 9.8264L72.1546 9.56732L71.9664 9.38382L68.9167 6.41048L68.9167 6.41045C68.9106 6.40451 68.9071 6.3964 68.907 6.3879C68.9069 6.37968 68.9099 6.37175 68.9155 6.36573C68.9212 6.36018 68.9271 6.35775 68.9322 6.35702L68.9334 6.35684L73.1486 5.74425L73.4087 5.70643L73.5251 5.47063L75.4084 1.65253C75.4174 1.63521 75.4379 1.63017 75.4518 1.63705L75.4524 1.63733C75.4579 1.64007 75.4625 1.64462 75.4652 1.65018L75.4654 1.65061L77.3497 5.47063Z" fill="black" stroke="#FFD601"/>
</mask>
<g mask="url(#mask0_29_180)">
<rect width="10.625" height="14.875" transform="matrix(-1 0 0 1 75.4374 1.0625)" fill="#FFD601"/>
</g>
</svg>
