<svg width="21" height="20" viewBox="0 0 21 20" fill="none" xmlns="http://www.w3.org/2000/svg">
<path d="M17.2991 14.0474C17.2655 13.841 17.1355 13.6646 16.9407 13.5598L14.0598 11.8706L14.0361 11.8574C13.9153 11.7972 13.7819 11.7664 13.6468 11.7674C13.4054 11.7674 13.1749 11.8584 13.0149 12.018L12.1646 12.8646C12.1282 12.899 12.0097 12.9488 11.9737 12.9506C11.9639 12.9498 10.9843 12.8796 9.18099 11.0848C7.38088 9.29381 7.30451 8.31601 7.30391 8.31601C7.30492 8.26601 7.35436 8.14841 7.38953 8.11201L8.11463 7.39061C8.37007 7.13581 8.44664 6.71341 8.29511 6.38621L6.69376 3.38761C6.5774 3.14921 6.3513 3.00201 6.10049 3.00201C5.92303 3.00201 5.7518 3.07521 5.61796 3.20821L3.64139 5.17081C3.45188 5.35841 3.28869 5.68641 3.25312 5.95041C3.23583 6.07661 2.88514 9.08901 7.03521 13.2196C10.5585 16.7254 13.3057 16.9978 14.0644 16.9978C14.1568 16.999 14.2492 16.9943 14.341 16.9836C14.6054 16.9484 14.9346 16.7864 15.1229 16.5986L17.0979 14.6334C17.2591 14.4722 17.3326 14.2592 17.2991 14.0474Z" fill="#46505C"/>
</svg>
