<svg id="Layer_1" data-name="Layer 1" xmlns="http://www.w3.org/2000/svg" viewBox="0 0 368.06 400.23"><defs><style>.cls-1{fill:#fcfbfa;}.cls-2,.cls-7{fill:none;stroke-miterlimit:10;}.cls-2{stroke:#770e0e;}.cls-3{fill:#9e5726;}.cls-4{fill:#ff910c;}.cls-5{fill:#ffc178;}.cls-6{fill:#ff720b;}.cls-7{stroke:#7a3709;stroke-width:5px;}.cls-8{fill:#7a3709;}.cls-9{fill:#7a3919;}.cls-10{fill:#fff;}</style></defs><path class="cls-1" d="M437.85,529.73a3.83,3.83,0,0,1-.53-1c-.09-.5.17-1,.76-.77a1.65,1.65,0,0,1,.78,1C439,529.51,438.61,529.81,437.85,529.73Z" transform="translate(-112.36 -219.58)"/><path class="cls-2" d="M192.18,343.62" transform="translate(-112.36 -219.58)"/><ellipse class="cls-3" cx="151.1" cy="369.1" rx="148.6" ry="31.13"/><path class="cls-4" d="M189.67,493.14S195,353.25,250,355.92,314.2,463.26,314.2,463.26l3.05,61.12" transform="translate(-112.36 -219.58)"/><path class="cls-4" d="M314.09,462.24s11.44-34.38,13.47-54.24-13.75-183.86,61.63-185.9,64.68,138,64.68,138S415.67,590.84,325.53,599.5s-68.25-121.72-68.25-121.72-2.55,122.74-53,115.1-96.26-117.06-88.62-152.75,87.6,70.24,87.6,70.24" transform="translate(-112.36 -219.58)"/><path class="cls-5" d="M349.79,255.19s17.83-33.61,40.75-33.1,68.75,37.18,59.59,118.16c.09,3,.28,18.47-11.66,31.06a43.37,43.37,0,0,1-25,12.82A54,54,0,0,1,389,380.77c-33.6-13.28-38.92-57.6-39.16-59.88C349.79,320.89,341.9,285.37,349.79,255.19Z" transform="translate(-112.36 -219.58)"/><path class="cls-6" d="M127.65,503.56c22.54,64.23,64.91,96.06,90.27,88.24,22.56-7,30.19-44.89,31.75-53.45C245,546,232.52,564,211.8,568.37,181.27,574.86,142.83,549.77,127.65,503.56Z" transform="translate(-112.36 -219.58)"/><path class="cls-4" d="M189.67,493.09l13.37,17a6.38,6.38,0,0,1,.79,1.91c.07.71,23.6-10.18,23.6-10.18Z" transform="translate(-112.36 -219.58)"/><path class="cls-5" d="M189.67,468.54c9-67.29,35.92-110.57,61.64-110.86,21.56-.25,38.85,29.74,43.79,38.54-20.57-14.54-37.47-13.73-42.62-13.24C220.61,386.05,190.89,420.6,189.67,468.54Z" transform="translate(-112.36 -219.58)"/><path class="cls-6" d="M261.58,557.55c2.16,5.21,14.5,33.48,41.9,41.38,32.06,9.24,73.36-12.69,90.46-56.56-5.47,5.32-38.51,36.48-85.37,32.11A102.14,102.14,0,0,1,261.58,557.55Z" transform="translate(-112.36 -219.58)"/><path class="cls-7" d="M189.67,493.14S195,353.25,250,355.92,314.2,463.26,314.2,463.26l3.05,61.12" transform="translate(-112.36 -219.58)"/><path class="cls-7" d="M314.09,462.24s11.44-34.38,13.47-54.24-13.75-183.86,61.63-185.9,64.68,138,64.68,138S415.67,590.84,325.53,599.5s-68.25-121.72-68.25-121.72-2.55,122.74-53,115.1-96.26-117.06-88.62-152.75,87.6,70.24,87.6,70.24" transform="translate(-112.36 -219.58)"/><ellipse class="cls-8" cx="204.9" cy="304.6" rx="3.63" ry="2.1"/><ellipse class="cls-8" cx="257.28" cy="477.7" rx="1.77" ry="3.56" transform="matrix(0.06, -1, 1, 0.06, -348.44, 483.9)"/><ellipse class="cls-8" cx="203.07" cy="510.14" rx="3.6" ry="2.36" transform="translate(-355.42 -29.51) rotate(-32.64)"/><ellipse class="cls-8" cx="275.63" cy="87.67" rx="35.52" ry="50.42"/><ellipse class="cls-9" cx="342.28" cy="87.67" rx="25.78" ry="35.52"/><ellipse class="cls-10" cx="286.45" cy="72.27" rx="13.24" ry="20.12"/><ellipse class="cls-10" cx="349.86" cy="77.07" rx="9.93" ry="13.18"/><path class="cls-4" d="M182.2,503.56" transform="translate(-112.36 -219.58)"/><path class="cls-5" d="M457.8,397.75" transform="translate(-112.36 -219.58)"/><path class="cls-8" d="M383.44,372.16c2,8.66,8.2,15.63,16.26,18.1,9.83,3,20.89-1.1,27.05-10.32a74.28,74.28,0,0,1-43.31-7.78Z" transform="translate(-112.36 -219.58)"/></svg>