<svg width="87" height="35" viewBox="0 0 87 35" fill="none" xmlns="http://www.w3.org/2000/svg">
<path d="M0 6C0 2.68629 2.68629 0 6 0H81C84.3137 0 87 2.68629 87 6V29C87 32.3137 84.3137 35 81 35H6C2.68629 35 0 32.3137 0 29V6Z" fill="#9E5726"/>
<path d="M14.5568 14.3643V12.8182H22.6804V14.3643H19.5334V23H17.7038V14.3643H14.5568ZM26.4402 23.1491C25.6745 23.1491 25.0133 22.9901 24.4565 22.6719C23.903 22.3504 23.4771 21.8963 23.1788 21.3097C22.8805 20.7197 22.7314 20.0253 22.7314 19.2266C22.7314 18.4411 22.8805 17.7517 23.1788 17.1584C23.4804 16.5618 23.9013 16.0978 24.4416 15.7663C24.9818 15.4316 25.6165 15.2642 26.3457 15.2642C26.8163 15.2642 27.2605 15.3404 27.6781 15.4929C28.099 15.642 28.4702 15.8741 28.7917 16.1889C29.1165 16.5038 29.3717 16.9048 29.5574 17.392C29.743 17.8759 29.8358 18.4527 29.8358 19.1222V19.674H23.5765V18.4609H28.1106C28.1073 18.1162 28.0327 17.8097 27.8869 17.5412C27.7411 17.2694 27.5372 17.0556 27.2754 16.8999C27.0169 16.7441 26.7153 16.6662 26.3706 16.6662C26.0027 16.6662 25.6795 16.7557 25.4011 16.9347C25.1227 17.1103 24.9056 17.3423 24.7498 17.6307C24.5974 17.9157 24.5195 18.2289 24.5162 18.5703V19.6293C24.5162 20.0734 24.5974 20.4545 24.7598 20.7727C24.9222 21.0876 25.1492 21.3295 25.4409 21.4986C25.7325 21.6643 26.0739 21.7472 26.465 21.7472C26.7269 21.7472 26.9638 21.7107 27.176 21.6378C27.3881 21.5616 27.572 21.4505 27.7278 21.3047C27.8836 21.1589 28.0012 20.9782 28.0808 20.7628L29.7612 20.9517C29.6551 21.3958 29.4529 21.7836 29.1547 22.1151C28.8597 22.4432 28.4818 22.6984 28.0211 22.8807C27.5604 23.0597 27.0334 23.1491 26.4402 23.1491ZM31.3583 23V15.3636H33.1033V16.6364H33.1829C33.3221 16.1955 33.5607 15.8558 33.8988 15.6172C34.2402 15.3752 34.6296 15.2543 35.0671 15.2543C35.1665 15.2543 35.2776 15.2592 35.4002 15.2692C35.5262 15.2758 35.6306 15.2874 35.7134 15.304V16.9595C35.6372 16.933 35.5162 16.9098 35.3505 16.8899C35.1881 16.8667 35.0307 16.8551 34.8782 16.8551C34.5501 16.8551 34.2551 16.9264 33.9933 17.0689C33.7347 17.2081 33.5309 17.402 33.3817 17.6506C33.2326 17.8991 33.158 18.1858 33.158 18.5107V23H31.3583ZM42.9446 17.3821L41.304 17.5611C41.2576 17.3954 41.1764 17.2396 41.0604 17.0938C40.9477 16.9479 40.7952 16.8303 40.603 16.7408C40.4107 16.6513 40.1754 16.6065 39.897 16.6065C39.5225 16.6065 39.2076 16.6877 38.9524 16.8501C38.7005 17.0125 38.5762 17.223 38.5795 17.4815C38.5762 17.7036 38.6574 17.8842 38.8232 18.0234C38.9922 18.1626 39.2706 18.277 39.6584 18.3665L40.9609 18.6449C41.6835 18.8007 42.2204 19.0476 42.5717 19.3857C42.9264 19.7237 43.1054 20.1662 43.1087 20.7131C43.1054 21.1937 42.9645 21.6179 42.6861 21.9858C42.411 22.3504 42.0282 22.6354 41.5376 22.8409C41.0471 23.0464 40.4837 23.1491 39.8473 23.1491C38.9126 23.1491 38.1603 22.9536 37.5902 22.5625C37.0201 22.1681 36.6804 21.6196 36.571 20.9169L38.326 20.7479C38.4055 21.0926 38.5746 21.3527 38.8331 21.5284C39.0916 21.7041 39.428 21.7919 39.8423 21.7919C40.2699 21.7919 40.6129 21.7041 40.8714 21.5284C41.1333 21.3527 41.2642 21.1357 41.2642 20.8771C41.2642 20.6584 41.1797 20.4777 41.0107 20.3352C40.8449 20.1927 40.5864 20.0833 40.2351 20.0071L38.9325 19.7337C38.2 19.5812 37.6581 19.3243 37.3068 18.9631C36.9555 18.5985 36.7815 18.1378 36.7848 17.581C36.7815 17.1103 36.9091 16.7027 37.1676 16.358C37.4295 16.0099 37.7924 15.7415 38.2564 15.5526C38.7237 15.3603 39.2623 15.2642 39.8722 15.2642C40.767 15.2642 41.4714 15.4548 41.9851 15.8359C42.5021 16.2171 42.822 16.7325 42.9446 17.3821ZM47.9734 23.1491C47.2077 23.1491 46.5465 22.9901 45.9897 22.6719C45.4362 22.3504 45.0103 21.8963 44.712 21.3097C44.4137 20.7197 44.2646 20.0253 44.2646 19.2266C44.2646 18.4411 44.4137 17.7517 44.712 17.1584C45.0136 16.5618 45.4345 16.0978 45.9748 15.7663C46.515 15.4316 47.1497 15.2642 47.8789 15.2642C48.3496 15.2642 48.7937 15.3404 49.2113 15.4929C49.6322 15.642 50.0034 15.8741 50.3249 16.1889C50.6497 16.5038 50.9049 16.9048 51.0906 17.392C51.2762 17.8759 51.369 18.4527 51.369 19.1222V19.674H45.1097V18.4609H49.6438C49.6405 18.1162 49.5659 17.8097 49.4201 17.5412C49.2743 17.2694 49.0704 17.0556 48.8086 16.8999C48.5501 16.7441 48.2485 16.6662 47.9038 16.6662C47.5359 16.6662 47.2127 16.7557 46.9343 16.9347C46.6559 17.1103 46.4388 17.3423 46.283 17.6307C46.1306 17.9157 46.0527 18.2289 46.0494 18.5703V19.6293C46.0494 20.0734 46.1306 20.4545 46.293 20.7727C46.4554 21.0876 46.6824 21.3295 46.9741 21.4986C47.2657 21.6643 47.6071 21.7472 47.9982 21.7472C48.2601 21.7472 48.497 21.7107 48.7092 21.6378C48.9213 21.5616 49.1052 21.4505 49.261 21.3047C49.4168 21.1589 49.5344 20.9782 49.614 20.7628L51.2944 20.9517C51.1883 21.3958 50.9862 21.7836 50.6879 22.1151C50.3929 22.4432 50.015 22.6984 49.5543 22.8807C49.0936 23.0597 48.5666 23.1491 47.9734 23.1491ZM55.7253 23.1342C55.1254 23.1342 54.5885 22.9801 54.1145 22.6719C53.6406 22.3636 53.266 21.9162 52.9909 21.3295C52.7158 20.7429 52.5783 20.0303 52.5783 19.1918C52.5783 18.3433 52.7175 17.6274 52.9959 17.044C53.2776 16.4574 53.6571 16.0149 54.1344 15.7166C54.6117 15.415 55.1436 15.2642 55.7303 15.2642C56.1777 15.2642 56.5456 15.3404 56.834 15.4929C57.1223 15.642 57.351 15.8227 57.5201 16.0348C57.6891 16.2436 57.82 16.4408 57.9128 16.6264H57.9874V12.8182H59.7921V23H58.0222V21.7969H57.9128C57.82 21.9825 57.6858 22.1797 57.5101 22.3885C57.3345 22.594 57.1025 22.7696 56.8141 22.9155C56.5257 23.0613 56.1628 23.1342 55.7253 23.1342ZM56.2275 21.6577C56.6086 21.6577 56.9334 21.5549 57.2019 21.3494C57.4703 21.1406 57.6742 20.8506 57.8134 20.4794C57.9526 20.1082 58.0222 19.6757 58.0222 19.1818C58.0222 18.688 57.9526 18.2588 57.8134 17.8942C57.6775 17.5296 57.4753 17.2462 57.2069 17.044C56.9417 16.8419 56.6152 16.7408 56.2275 16.7408C55.8264 16.7408 55.4917 16.8452 55.2232 17.054C54.9547 17.2628 54.7525 17.5511 54.6167 17.919C54.4808 18.2869 54.4128 18.7079 54.4128 19.1818C54.4128 19.6591 54.4808 20.085 54.6167 20.4595C54.7559 20.8307 54.9597 21.1241 55.2282 21.3395C55.4999 21.5516 55.833 21.6577 56.2275 21.6577ZM61.7099 23V15.3636H63.5096V23H61.7099ZM62.6147 14.2798C62.3297 14.2798 62.0844 14.1854 61.8789 13.9964C61.6734 13.8042 61.5707 13.5739 61.5707 13.3054C61.5707 13.0336 61.6734 12.8033 61.8789 12.6143C62.0844 12.4221 62.3297 12.326 62.6147 12.326C62.9031 12.326 63.1483 12.4221 63.3505 12.6143C63.556 12.8033 63.6587 13.0336 63.6587 13.3054C63.6587 13.5739 63.556 13.8042 63.3505 13.9964C63.1483 14.1854 62.9031 14.2798 62.6147 14.2798ZM67.5577 23.1541C67.0738 23.1541 66.638 23.0679 66.2502 22.8956C65.8657 22.7199 65.5608 22.4614 65.3354 22.12C65.1133 21.7786 65.0023 21.3577 65.0023 20.8572C65.0023 20.4264 65.0819 20.0701 65.2409 19.7884C65.4 19.5066 65.6171 19.2812 65.8922 19.1122C66.1673 18.9432 66.4772 18.8156 66.8219 18.7294C67.1699 18.6399 67.5295 18.5753 67.9007 18.5355C68.3482 18.4891 68.7111 18.4477 68.9895 18.4112C69.2679 18.3714 69.4701 18.3118 69.5961 18.2322C69.7253 18.1494 69.79 18.0218 69.79 17.8494V17.8196C69.79 17.4451 69.6789 17.1551 69.4569 16.9496C69.2348 16.7441 68.915 16.6413 68.4973 16.6413C68.0565 16.6413 67.7069 16.7375 67.4483 16.9297C67.1931 17.1219 67.0208 17.349 66.9313 17.6108L65.2509 17.3722C65.3835 16.9081 65.6022 16.5204 65.9071 16.2088C66.2121 15.8939 66.5849 15.6586 67.0257 15.5028C67.4666 15.3438 67.9538 15.2642 68.4874 15.2642C68.8553 15.2642 69.2215 15.3073 69.5861 15.3935C69.9507 15.4796 70.2838 15.6222 70.5854 15.821C70.887 16.0166 71.129 16.2834 71.3113 16.6214C71.4969 16.9595 71.5897 17.3821 71.5897 17.8892V23H69.8596V21.951H69.7999C69.6905 22.1631 69.5364 22.362 69.3375 22.5476C69.142 22.7299 68.8951 22.8774 68.5968 22.9901C68.3018 23.0994 67.9554 23.1541 67.5577 23.1541ZM68.025 21.8317C68.3863 21.8317 68.6995 21.7604 68.9647 21.6179C69.2298 21.4721 69.4337 21.2798 69.5762 21.0412C69.722 20.8026 69.7949 20.5424 69.7949 20.2607V19.3608C69.7386 19.4072 69.6425 19.4503 69.5066 19.4901C69.374 19.5298 69.2248 19.5646 69.0591 19.5945C68.8934 19.6243 68.7293 19.6508 68.5669 19.674C68.4045 19.6972 68.2637 19.7171 68.1444 19.7337C67.8759 19.7701 67.6356 19.8298 67.4235 19.9126C67.2114 19.9955 67.044 20.1115 66.9213 20.2607C66.7987 20.4065 66.7374 20.5954 66.7374 20.8274C66.7374 21.1589 66.8584 21.4091 67.1003 21.5781C67.3423 21.7472 67.6505 21.8317 68.025 21.8317Z" fill="white"/>
</svg>
